<?xml version="1.0" encoding="UTF-8"?>
<svg xmlns="http://www.w3.org/2000/svg" xmlns:xlink="http://www.w3.org/1999/xlink" width="3533.600098pt" height="2607.199951pt" viewBox="0 0 3533.600098 2607.199951" version="1.1">
<g id="surface1">
<path style=" stroke:none;fill-rule:nonzero;fill:rgb(25%,25%,25%);fill-opacity:1;" d="M 1751.34375 976.835938 C 1312.566406 976.835938 913.917969 1029.585938 618.777344 1115.550781 L 618.777344 1849.878906 C 913.917969 1935.84375 1312.566406 1988.589844 1751.34375 1988.589844 C 2253.535156 1988.589844 2703.128906 1919.496094 3005.125 1810.585938 L 3005.125 1154.859375 C 2703.128906 1045.9375 2253.535156 976.835938 1751.34375 976.835938 Z M 1751.34375 976.835938 "/>
<path style=" stroke:none;fill-rule:nonzero;fill:rgb(25%,25%,25%);fill-opacity:1;" d="M 3024.746094 1641.476562 C 3011.890625 1605.929688 3009.316406 1560.960938 3020.210938 1517.601562 C 3039.710938 1439.972656 3094.945312 1396.941406 3143.585938 1421.492188 C 3155.644531 1427.582031 3166.164062 1437.261719 3174.875 1449.550781 C 3175.671875 1449.546875 3176.46875 1449.550781 3177.257812 1449.605469 C 3177.257812 1449.605469 3325.765625 1626.625 3188.300781 1836.28125 C 3185.320312 1848.179688 2933.1875 2142.007812 2874.824219 2151.363281 C 2836.625 2157.480469 2924.460938 1851.367188 3024.746094 1641.476562 Z M 3024.746094 1641.476562 "/>
<path style=" stroke:none;fill-rule:nonzero;fill:rgb(25%,25%,25%);fill-opacity:1;" d="M 588.265625 1606.738281 C 605.929688 1574.636719 612.125 1530.777344 602.320312 1485.320312 C 584.765625 1403.933594 522.621094 1348.289062 463.515625 1361.039062 C 448.855469 1364.199219 435.765625 1371.277344 424.628906 1381.363281 C 423.6875 1381.171875 422.746094 1380.988281 421.808594 1380.855469 C 421.808594 1380.855469 234.171875 1520.695312 381.621094 1760.601562 C 384.304688 1773.070312 661.125 2123.394531 729.324219 2146.476562 C 773.960938 2161.585938 691.832031 1838.0625 588.265625 1606.738281 Z M 588.265625 1606.738281 "/>
<path style=" stroke:none;fill-rule:nonzero;fill:rgb(42%,42%,42%);fill-opacity:1;" d="M 324.890625 1626.886719 L 324.914062 1626.9375 C 325.53125 1627.421875 326.105469 1627.859375 324.890625 1626.886719 Z M 324.890625 1626.886719 "/>
<path style=" stroke:none;fill-rule:nonzero;fill:rgb(42%,42%,42%);fill-opacity:1;" d="M 3310.398438 1376.34375 C 3307.464844 1366.132812 3304.546875 1355.925781 3301.527344 1345.804688 L 3403.800781 1197.632812 C 3414.234375 1182.5625 3416.371094 1162.972656 3409.570312 1145.785156 C 3402.769531 1128.683594 3387.9375 1116.417969 3370.371094 1113.417969 L 3197.414062 1084.066406 C 3190.722656 1070.394531 3183.695312 1056.925781 3176.648438 1043.566406 L 3249.304688 877.222656 C 3256.78125 860.265625 3255.203125 840.574219 3245.296875 825.199219 C 3235.425781 809.742188 3218.664062 800.71875 3200.800781 801.421875 L 3025.277344 807.796875 C 3016.1875 795.964844 3006.960938 784.238281 2997.539062 772.726562 L 3037.875 594.425781 C 3041.960938 576.316406 3036.800781 557.367188 3024.199219 544.214844 C 3011.660156 531.105469 2993.4375 525.683594 2976.113281 529.9375 L 2805.148438 571.964844 C 2794.078125 562.179688 2782.820312 552.519531 2771.4375 543.054688 L 2777.59375 360.007812 C 2778.253906 341.476562 2769.617188 323.871094 2754.78125 313.589844 C 2739.960938 303.242188 2721.140625 301.679688 2704.929688 309.371094 L 2545.4375 385.195312 C 2532.59375 377.828125 2519.679688 370.527344 2506.625 363.46875 L 2478.441406 183.085938 C 2475.585938 164.8125 2463.824219 149.292969 2447.355469 142.203125 C 2430.945312 135.078125 2412.128906 137.375 2397.71875 148.230469 L 2255.523438 254.921875 C 2241.523438 250.265625 2227.457031 245.808594 2213.214844 241.550781 L 2151.929688 70.492188 C 2145.695312 53.0625 2131.324219 40.257812 2113.800781 36.65625 C 2096.339844 33.085938 2078.367188 39.132812 2066.257812 52.664062 L 1946.566406 186.570312 C 1932.09375 184.902344 1917.617188 183.382812 1903.089844 182.128906 L 1810.679688 26.421875 C 1801.316406 10.648438 1784.78125 1.046875 1766.960938 1.046875 C 1749.179688 1.046875 1732.613281 10.648438 1723.328125 26.421875 L 1630.882812 182.128906 C 1616.359375 183.382812 1601.8125 184.902344 1587.363281 186.570312 L 1467.664062 52.664062 C 1455.542969 39.132812 1437.507812 33.085938 1420.105469 36.65625 C 1402.585938 40.296875 1388.195312 53.0625 1381.996094 70.492188 L 1320.65625 241.550781 C 1306.453125 245.808594 1292.382812 250.308594 1278.351562 254.921875 L 1136.203125 148.230469 C 1121.75 137.34375 1102.9375 135.046875 1086.484375 142.203125 C 1070.085938 149.292969 1058.28125 164.8125 1055.441406 183.085938 L 1027.238281 363.46875 C 1014.191406 370.527344 1001.273438 377.785156 988.394531 385.195312 L 828.921875 309.371094 C 812.726562 301.652344 793.824219 303.242188 779.074219 313.589844 C 764.257812 323.871094 755.601562 341.476562 756.273438 360.007812 L 762.390625 543.054688 C 751.039062 552.519531 739.8125 562.179688 728.683594 571.964844 L 557.753906 529.9375 C 540.382812 525.71875 522.1875 531.105469 509.617188 544.214844 C 496.96875 557.367188 491.84375 576.316406 495.90625 594.425781 L 536.171875 772.726562 C 526.832031 784.285156 517.585938 795.964844 508.527344 807.796875 L 333.011719 801.421875 C 315.292969 800.898438 298.386719 809.742188 288.488281 825.199219 C 278.574219 840.574219 277.074219 860.265625 284.453125 877.222656 L 357.167969 1043.566406 C 350.105469 1056.925781 343.085938 1070.394531 336.335938 1084.066406 L 163.394531 1113.417969 C 145.824219 1116.378906 131.011719 1128.636719 124.179688 1145.785156 C 117.390625 1162.972656 119.59375 1182.5625 129.964844 1197.632812 L 232.261719 1345.804688 C 231.472656 1348.417969 230.746094 1351.058594 229.964844 1353.683594 L 173.753906 1413.390625 L 324.890625 1626.886719 C 324.890625 1626.886719 1775.398438 2295.996094 3120.882812 1638.207031 C 3274.574219 1610.632812 3310.398438 1376.34375 3310.398438 1376.34375 Z M 3310.398438 1376.34375 "/>
<path style=" stroke:none;fill-rule:nonzero;fill:rgb(1%,1%,1%);fill-opacity:1;" d="M 2027.679688 1255.863281 C 2027.679688 1255.863281 2188.203125 1080.101562 2348.730469 1255.863281 C 2348.730469 1255.863281 2474.863281 1490.238281 2348.730469 1607.40625 C 2348.730469 1607.40625 2142.339844 1771.464844 2027.679688 1607.40625 C 2027.679688 1607.40625 1890.082031 1478.5 2027.679688 1255.863281 Z M 2027.679688 1255.863281 "/>
<path style=" stroke:none;fill-rule:nonzero;fill:rgb(100%,100%,100%);fill-opacity:1;" d="M 2213.523438 1321.066406 C 2213.523438 1389.511719 2173.183594 1444.996094 2123.425781 1444.996094 C 2073.679688 1444.996094 2033.335938 1389.511719 2033.335938 1321.066406 C 2033.335938 1252.628906 2073.679688 1197.132812 2123.425781 1197.132812 C 2173.183594 1197.132812 2213.523438 1252.628906 2213.523438 1321.066406 Z M 2213.523438 1321.066406 "/>
<path style=" stroke:none;fill-rule:nonzero;fill:rgb(1%,1%,1%);fill-opacity:1;" d="M 1311.21875 1207.871094 C 1311.21875 1207.871094 1586.578125 1085.949219 1661.730469 1358.078125 C 1661.730469 1358.078125 1740.457031 1675.257812 1435.609375 1693.160156 C 1435.609375 1693.160156 1046.867188 1618.289062 1311.21875 1207.871094 Z M 1311.21875 1207.871094 "/>
<path style=" stroke:none;fill-rule:nonzero;fill:rgb(100%,100%,100%);fill-opacity:1;" d="M 1449.519531 1325.5625 C 1449.519531 1396.136719 1407.917969 1453.382812 1356.59375 1453.382812 C 1305.292969 1453.382812 1263.679688 1396.136719 1263.679688 1325.5625 C 1263.679688 1254.96875 1305.292969 1197.742188 1356.59375 1197.742188 C 1407.917969 1197.742188 1449.519531 1254.96875 1449.519531 1325.5625 Z M 1449.519531 1325.5625 "/>
<path style=" stroke:none;fill-rule:nonzero;fill:rgb(42%,42%,42%);fill-opacity:1;" d="M 372.007812 1664.054688 C 408.5625 1622.511719 497.378906 1572.199219 490.574219 1509.78125 C 478.398438 1398.023438 385.71875 1316.449219 283.578125 1327.585938 C 258.242188 1330.34375 234.71875 1338.558594 213.832031 1351.039062 C 212.289062 1350.679688 210.746094 1350.335938 209.203125 1350.058594 C 209.203125 1350.058594 -136.234375 1519.632812 60.65625 1858.914062 C 62.511719 1876.039062 453.484375 2377.808594 563.285156 2416.019531 C 635.148438 2441.023438 496.914062 1987.21875 372.007812 1664.054688 Z M 372.007812 1664.054688 "/>
<path style=" stroke:none;fill-rule:nonzero;fill:rgb(42%,42%,42%);fill-opacity:1;" d="M 3178.5 1648.910156 C 3136.1875 1613.246094 3024.625 1580.851562 3022.097656 1518.117188 C 3017.578125 1405.792969 3097.140625 1311.382812 3199.804688 1307.25 C 3225.265625 1306.222656 3249.753906 1310.859375 3272.257812 1320.109375 C 3273.730469 1319.527344 3275.203125 1318.953125 3276.6875 1318.449219 C 3276.6875 1318.449219 3643.4375 1434.953125 3499.003906 1799.671875 C 3499.703125 1816.882812 3187.441406 2371.058594 3084.519531 2425.121094 C 3017.15625 2460.503906 3102.871094 1987.019531 3178.5 1648.910156 Z M 3178.5 1648.910156 "/>
<path style=" stroke:none;fill-rule:nonzero;fill:rgb(42%,42%,42%);fill-opacity:1;" d="M 637.140625 1651.859375 C 637.140625 1651.859375 632.53125 2109.515625 1081.027344 2211.636719 L 1174.539062 2023.757812 C 1174.539062 2023.757812 849.558594 2055.195312 824.558594 1651.859375 Z M 637.140625 1651.859375 "/>
<path style=" stroke:none;fill-rule:nonzero;fill:rgb(42%,42%,42%);fill-opacity:1;" d="M 2921.210938 1651.859375 C 2921.210938 1651.859375 2925.816406 2109.515625 2477.320312 2211.636719 L 2383.804688 2023.757812 C 2383.804688 2023.757812 2708.789062 2055.195312 2733.789062 1651.859375 Z M 2921.210938 1651.859375 "/>
<path style=" stroke:none;fill-rule:nonzero;fill:rgb(42%,42%,42%);fill-opacity:1;" d="M 2597.226562 2118.636719 C 2529.726562 1955.5 2311.910156 1890.726562 2110.722656 1973.972656 C 1933.636719 2047.242188 1828.597656 2210.746094 1851.976562 2360.121094 C 1991.796875 2357.949219 2141.773438 2348.886719 2287.761719 2327.730469 C 2287.761719 2327.730469 2201.636719 2466.9375 2074.90625 2588.433594 C 2160.125 2610.429688 2259.515625 2604.324219 2355.160156 2564.753906 C 2556.347656 2481.507812 2664.726562 2281.773438 2597.226562 2118.636719 Z M 2597.226562 2118.636719 "/>
<path style=" stroke:none;fill-rule:nonzero;fill:rgb(42%,42%,42%);fill-opacity:1;" d="M 1349.15625 2319.949219 C 1349.15625 2319.949219 1533.164062 2344.265625 1784.722656 2350.46875 C 1806.753906 2192.097656 1686.789062 2024.496094 1495.382812 1959.660156 C 1283.925781 1888.03125 1065.421875 1968.964844 1007.335938 2140.433594 C 949.253906 2311.898438 1073.589844 2508.964844 1285.050781 2580.59375 C 1378.789062 2612.347656 1473.894531 2614.09375 1555.816406 2591.285156 C 1432.777344 2469.601562 1349.15625 2319.949219 1349.15625 2319.949219 Z M 1349.15625 2319.949219 "/>
</g>
</svg>
